<?xml version="1.0" encoding="UTF-8"?>
<svg xmlns="http://www.w3.org/2000/svg" xmlns:xlink="http://www.w3.org/1999/xlink" width="227pt" height="227pt" viewBox="0 0 227 227" version="1.1">
<g id="surface1">
<path style=" stroke:none;fill-rule:nonzero;fill:white;fill-opacity:1;" d="M 85.503906 108.25 C 97.03125 102.863281 108.328125 94.382813 108.324219 80.453125 C 108.324219 73.039063 104.121094 66.6875 98.402344 62.3125 C 89.628906 55.601563 78.363281 54.273438 67.4375 55.703125 C 67.375 55.71875 67.242188 55.730469 67.058594 55.773438 C 65.589844 55.800781 65.234375 56.097656 63.824219 56.277344 C 60.101563 56.96875 56.460938 57.953125 53.007813 59.128906 C 45.683594 62.0625 39.09375 66.703125 32.835938 71.707031 C 32.738281 71.898438 32.648438 72.089844 32.5625 72.285156 C 31.179688 75.5 33.484375 77.128906 36.4375 75.960938 C 49.542969 70.757813 60.933594 63.9375 75.824219 66.253906 C 85.910156 67.828125 103.203125 76.964844 94.179688 89.097656 C 89.648438 95.128906 81.460938 97.742188 74.863281 100.625 C 76.417969 95.152344 80.359375 85.605469 79.285156 82.382813 C 78.488281 79.992188 74.109375 79.527344 71.925781 82.160156 C 66.054688 89.226563 66.195313 98.15625 63.339844 101.136719 C 60.511719 104.078125 54.125 97.796875 50.367188 99.257813 C 46.042969 100.925781 44.714844 106.390625 48.066406 109.59375 C 50.847656 112.34375 55.652344 113.59375 59.492188 113.59375 C 53.605469 128.617188 50.929688 142.234375 48.925781 156.828125 C 48.40625 160.667969 46.144531 170.042969 51.328125 171.507813 C 55.003906 172.542969 60.410156 170.929688 60.265625 166.914063 C 59.65625 150.210938 69.835938 117.828125 71.433594 113.484375 C 72.292969 111.152344 81.429688 110.175781 85.503906 108.25 "/>
<path style=" stroke:none;fill-rule:nonzero;fill:white;fill-opacity:1;" d="M 157.78125 119.839844 C 158.921875 116.808594 163.027344 108.171875 167.019531 108.433594 C 169.269531 108.582031 167.972656 111.972656 167.539063 113.113281 C 166.46875 115.996094 162.269531 125.121094 158.441406 124.644531 C 156.277344 124.371094 157.308594 121.070313 157.78125 119.839844 Z M 131.382813 110.714844 L 129.074219 118.398438 C 128.5625 120.132813 125.300781 130.066406 122.292969 127.214844 C 120.972656 125.976563 121.390625 122.902344 121.457031 121.28125 C 121.835938 116.476563 126.445313 101.503906 126.683594 100.890625 C 127.378906 99.089844 132.449219 99.703125 134.425781 99.664063 Z M 83.511719 135.210938 C 79.46875 132.503906 89.164063 119.3125 92.15625 120.800781 C 94.316406 122.011719 86.832031 136.183594 83.511719 135.210938 Z M 190.546875 82.671875 C 184.101563 81.425781 175.832031 83.941406 169.410156 84.972656 L 152.117188 87.65625 C 152.542969 84.773438 154.136719 81.488281 153.40625 78.53125 C 152.355469 74.269531 146.542969 73.726563 143.628906 76.328125 C 139.953125 79.679688 140.679688 86.273438 137.09375 89.308594 C 135.308594 90.773438 132.191406 90.847656 130.023438 91.019531 C 130.921875 88.261719 132.539063 84.847656 131.734375 81.894531 C 130.613281 77.777344 125.148438 77.78125 122.335938 80.160156 C 118.707031 83.339844 119.742188 89.28125 116.714844 92.796875 C 114.28125 95.621094 109.046875 94.382813 106.117188 96.78125 C 99.710938 101.933594 110.230469 103.371094 113.691406 102.546875 C 112.609375 110.585938 108.851563 118.925781 106.171875 126.5625 C 105.394531 128.773438 104.285156 133.289063 101.683594 134.011719 C 98.234375 135.007813 100.417969 127.808594 100.816406 126.5625 C 102.644531 120.679688 111.28125 107.367188 98.800781 108.878906 C 86.121094 110.417969 70.738281 125.605469 70.460938 138.574219 C 70.222656 152.230469 84.65625 147.417969 90.636719 141.457031 C 94.476563 149.621094 107.757813 143.445313 110.808594 137.609375 C 116.847656 144.960938 128.402344 142.914063 131.945313 133.769531 C 136.136719 140.363281 143.804688 141.457031 148.753906 134.730469 C 156.113281 140.324219 163.59375 136.171875 169.410156 130.40625 C 173.699219 138.949219 190.511719 138.097656 192.683594 128.007813 C 194.296875 120.507813 184.757813 120.027344 180.9375 124.164063 C 176.820313 118.261719 186.222656 110.230469 186.128906 103.988281 C 186.003906 97.128906 178.152344 98.503906 174.695313 101.585938 C 172.46875 97.535156 167.367188 98.378906 163.648438 99.882813 C 155.773438 103.0625 149.074219 110.378906 146.355469 118.398438 C 146.003906 119.433594 144.320313 127.085938 142.402344 124.039063 C 140.292969 120.695313 142.992188 114.082031 144.117188 110.714844 C 145.132813 107.53125 147.464844 99.675781 148.359375 99.132813 C 150.363281 97.902344 157.722656 97.335938 161.242188 96.84375 C 170.851563 95.503906 183.820313 95.820313 192.457031 90.816406 C 196.742188 88.363281 194.753906 83.484375 190.546875 82.671875 "/>
<path style=" stroke:none;fill-rule:nonzero;fill:white;fill-opacity:1;" d="M 192.152344 98.929688 C 191.917969 99.351563 191.589844 99.679688 191.164063 99.917969 C 190.738281 100.152344 190.296875 100.269531 189.835938 100.269531 C 189.371094 100.269531 188.929688 100.152344 188.503906 99.917969 C 188.078125 99.679688 187.75 99.351563 187.515625 98.929688 C 187.277344 98.503906 187.160156 98.0625 187.160156 97.601563 C 187.160156 97.136719 187.28125 96.6875 187.519531 96.261719 C 187.761719 95.832031 188.09375 95.503906 188.519531 95.269531 C 188.945313 95.039063 189.382813 94.925781 189.835938 94.925781 C 190.28125 94.925781 190.71875 95.039063 191.148438 95.269531 C 191.574219 95.503906 191.90625 95.832031 192.148438 96.261719 C 192.386719 96.6875 192.503906 97.136719 192.503906 97.601563 C 192.503906 98.0625 192.386719 98.503906 192.152344 98.929688 Z M 192.609375 95.992188 C 192.320313 95.480469 191.921875 95.085938 191.410156 94.808594 C 190.898438 94.53125 190.371094 94.394531 189.835938 94.394531 C 189.296875 94.394531 188.769531 94.53125 188.257813 94.808594 C 187.746094 95.085938 187.347656 95.480469 187.058594 95.992188 C 186.769531 96.507813 186.628906 97.042969 186.628906 97.601563 C 186.628906 98.152344 186.769531 98.683594 187.054688 99.191406 C 187.335938 99.703125 187.730469 100.097656 188.238281 100.378906 C 188.746094 100.660156 189.277344 100.804688 189.835938 100.804688 C 190.390625 100.804688 190.921875 100.660156 191.429688 100.378906 C 191.9375 100.097656 192.332031 99.703125 192.613281 99.191406 C 192.894531 98.683594 193.035156 98.152344 193.035156 97.601563 C 193.035156 97.042969 192.894531 96.507813 192.609375 95.992188 "/>
<path style=" stroke:none;fill-rule:nonzero;fill:white;fill-opacity:1;" d="M 189.949219 95.953125 C 190.253906 95.953125 190.519531 96.023438 190.746094 96.160156 C 190.972656 96.296875 191.144531 96.492188 191.261719 96.75 L 191.949219 96.597656 C 191.828125 96.222656 191.59375 95.921875 191.253906 95.703125 C 190.914063 95.480469 190.484375 95.371094 189.972656 95.371094 C 189.507813 95.371094 189.101563 95.457031 188.742188 95.628906 C 188.386719 95.800781 188.109375 96.054688 187.917969 96.394531 C 187.722656 96.730469 187.628906 97.128906 187.628906 97.589844 C 187.628906 98.289063 187.839844 98.835938 188.265625 99.230469 C 188.691406 99.628906 189.242188 99.824219 189.925781 99.824219 C 190.460938 99.824219 190.917969 99.695313 191.296875 99.4375 C 191.675781 99.179688 191.921875 98.832031 192.035156 98.398438 L 191.324219 98.210938 C 191.238281 98.519531 191.066406 98.765625 190.800781 98.945313 C 190.539063 99.128906 190.234375 99.21875 189.882813 99.21875 C 189.453125 99.21875 189.097656 99.078125 188.824219 98.808594 C 188.550781 98.535156 188.417969 98.132813 188.417969 97.605469 C 188.417969 97.070313 188.558594 96.664063 188.847656 96.382813 C 189.136719 96.097656 189.503906 95.953125 189.949219 95.953125 "/>
</g>
</svg>
